<svg xmlns="http://www.w3.org/2000/svg" xmlns:xlink="http://www.w3.org/1999/xlink" width="36" height="36" viewBox="0 0 36 36">
  <defs>
    <clipPath id="clip-sbi_logo_small">
      <rect width="36" height="36"/>
    </clipPath>
  </defs>
  <g id="sbi_logo_small" clip-path="url(#clip-sbi_logo_small)">
    <g id="sbi_sec" transform="translate(-366.6 -353.727)">
      <g id="Group_10042" data-name="Group 10042" transform="translate(367.6 354.727)">
        <path id="Exclusion_1" data-name="Exclusion 1" d="M16.12,34h0c-.287-.015-.575-.037-.858-.065a17.034,17.034,0,0,1-1.688-.258c-.548-.112-1.1-.253-1.629-.419s-1.053-.357-1.562-.572a17.057,17.057,0,0,1-9.047-9.053C1.121,23.123.928,22.6.764,22.07S.457,20.988.345,20.44A17.065,17.065,0,0,1,.088,18.75a17.277,17.277,0,0,1,0-3.479,17.065,17.065,0,0,1,.258-1.689c.112-.548.253-1.1.419-1.63s.356-1.054.572-1.563a17.053,17.053,0,0,1,9.047-9.053c.509-.215,1.034-.408,1.562-.572S13.026.458,13.574.346A17.034,17.034,0,0,1,15.262.088a17.243,17.243,0,0,1,3.476,0,17.034,17.034,0,0,1,1.688.258c.548.112,1.1.253,1.629.419s1.053.357,1.562.572a17.057,17.057,0,0,1,9.047,9.053c.215.509.408,1.035.572,1.563s.307,1.082.419,1.63a17.064,17.064,0,0,1,.258,1.689,17.278,17.278,0,0,1,0,3.479,17.064,17.064,0,0,1-.258,1.689c-.112.548-.253,1.1-.419,1.63s-.356,1.054-.572,1.563a17.053,17.053,0,0,1-9.047,9.053c-.509.215-1.034.408-1.562.572s-1.081.307-1.629.419a17.034,17.034,0,0,1-1.688.258c-.283.029-.571.051-.858.065V20.36a3.3,3.3,0,1,0-1.76-.009Z" transform="translate(0 0)" fill="#5e50ad"/>
      </g>
    </g>
  </g>
</svg>
