<svg xmlns="http://www.w3.org/2000/svg" xmlns:xlink="http://www.w3.org/1999/xlink" width="174" height="30" viewBox="0 0 174 30">
  <defs>
    <clipPath id="clip-splash_logo_new">
      <rect width="174" height="30"/>
    </clipPath>
  </defs>
  <g id="splash_logo_new" clip-path="url(#clip-splash_logo_new)">
    <g id="Light_Logo_sbi" transform="translate(-0.204 0.23)">
      <g id="Group_10030" data-name="Group 10030" transform="translate(29.912 4.77)">
        <path id="Path_31425" data-name="Path 31425" d="M29.468,22.318a9.493,9.493,0,0,1-4.159-.807l.4-3.327a8.991,8.991,0,0,0,3.67.82c1.052,0,1.529-.4,1.529-.979,0-1.8-5.762-.746-5.762-5.517,0-2.447,1.664-4.367,5.333-4.367a10.043,10.043,0,0,1,3.8.722l-.306,3.266a10.9,10.9,0,0,0-3.5-.6c-.869,0-1.3.294-1.3.807,0,1.725,5.652.734,5.652,5.333C34.838,20.507,33.285,22.318,29.468,22.318Z" transform="translate(-25.15 -4.018)" fill="#fff"/>
        <path id="Path_31426" data-name="Path 31426" d="M41.1,22.975a4.722,4.722,0,0,1-3.327-1.223l-.465.979H34.43V5.323l4.257-.183V9.715h0a4.722,4.722,0,0,1,2.9-.942c3.058,0,4.954,1.969,4.954,7S44.461,22.975,41.1,22.975Zm-.734-10.667a1.921,1.921,0,0,0-1.676.905v5.639a1.859,1.859,0,0,0,1.676.942c1.223,0,1.81-.563,1.81-3.878S41.611,12.308,40.363,12.308Z" transform="translate(-23.078 -4.687)" fill="#fff"/>
        <path id="Path_31427" data-name="Path 31427" d="M48.164,8.073c-1.578,0-2.324-.453-2.324-1.639s.746-1.664,2.324-1.664,2.312.587,2.312,1.664S49.767,8.073,48.164,8.073ZM46.036,22.8V9.21l4.355-.183V22.8Z" transform="translate(-20.53 -4.77)" fill="#fff"/>
        <path id="Path_31428" data-name="Path 31428" d="M59.788,22.318a9.456,9.456,0,0,1-4.159-.807l.4-3.327A8.979,8.979,0,0,0,59.7,19c1.064,0,1.529-.4,1.529-.979,0-1.8-5.762-.746-5.762-5.517,0-2.447,1.676-4.367,5.346-4.367a10.043,10.043,0,0,1,3.866.722l-.367,3.266a10.9,10.9,0,0,0-3.5-.6c-.869,0-1.3.294-1.3.807,0,1.725,5.652.734,5.652,5.333C65.171,20.507,63.617,22.318,59.788,22.318Z" transform="translate(-18.38 -4.018)" fill="#fff"/>
        <path id="Path_31429" data-name="Path 31429" d="M64.28,15.088c0-4.477,1.933-6.948,6.116-6.948,3.67,0,5.688,1.933,5.688,6.324a16.8,16.8,0,0,1-.11,1.945H68.708c.183,1.786,1.1,2.447,3.107,2.447a10.606,10.606,0,0,0,3.474-.563l.453,3.229a12.526,12.526,0,0,1-4.477.807C66.445,22.306,64.28,19.81,64.28,15.088Zm7.878-1.37c0-1.7-.612-2.263-1.737-2.263s-1.639.5-1.786,2.263Z" transform="translate(-16.413 -4.018)" fill="#fff"/>
        <path id="Path_31430" data-name="Path 31430" d="M84.12,12.067a6.936,6.936,0,0,0-1.921-.318c-2.239,0-2.924.881-2.924,3.56s1.064,3.584,2.826,3.584a6.116,6.116,0,0,0,2.092-.355l.281,3.107a6.911,6.911,0,0,1-3.291.673c-4.086,0-6.324-2.275-6.324-7.009S76.793,8.14,81.233,8.14a9.786,9.786,0,0,1,3.132.538Z" transform="translate(-14.051 -4.018)" fill="#fff"/>
        <path id="Path_31431" data-name="Path 31431" d="M95.656,17.179c0,3.425-1.921,5.064-5.872,5.064S83.9,20.494,83.9,17.179V8.31h4.281v8.844c0,1.052.465,1.541,1.615,1.541s1.566-.44,1.566-1.541V8.31h4.257Z" transform="translate(-12.033 -3.98)" fill="#fff"/>
        <path id="Path_31432" data-name="Path 31432" d="M95.17,22.051V8.46L98.632,8.3l.33,1.884h0a3.829,3.829,0,0,1,3.413-2.055,5.346,5.346,0,0,1,1.5.2l-.257,3.988a5.2,5.2,0,0,0-1.5-.208,2.606,2.606,0,0,0-2.7,2.936v7.009Z" transform="translate(-9.516 -4.02)" fill="#fff"/>
        <path id="Path_31433" data-name="Path 31433" d="M105.946,8.073c-1.578,0-2.336-.453-2.336-1.639s.758-1.664,2.336-1.664,2.3.587,2.3,1.664S107.537,8.073,105.946,8.073Zm-2.19,14.679V9.21l4.343-.183V22.8Z" transform="translate(-7.632 -4.77)" fill="#fff"/>
        <path id="Path_31434" data-name="Path 31434" d="M114.166,11.892v6.545c0,.832.428,1.223,1.358,1.223a4.735,4.735,0,0,0,.991-.135l.2,2.936a6.63,6.63,0,0,1-2.447.4,3.89,3.89,0,0,1-4.33-4.306V11.892H108.71v-3h1.456l.71-2.911,3.364-.294v3.2h2.728v3Z" transform="translate(-6.493 -4.565)" fill="#fff"/>
        <path id="Path_31435" data-name="Path 31435" d="M119.014,8.073c-1.566,0-2.324-.453-2.324-1.639s.758-1.664,2.324-1.664,2.312.587,2.312,1.664S120.617,8.073,119.014,8.073Zm-2.177,14.679V9.21l4.343-.183V22.8Z" transform="translate(-4.712 -4.77)" fill="#fff"/>
        <path id="Path_31436" data-name="Path 31436" d="M121.94,15.088c0-4.477,1.933-6.948,6.116-6.948,3.67,0,5.688,1.933,5.688,6.324a11.316,11.316,0,0,1-.11,1.945h-7.266c.183,1.786,1.1,2.447,3.095,2.447a10.63,10.63,0,0,0,3.486-.563l.44,3.229a12.453,12.453,0,0,1-4.465.807C124.105,22.306,121.94,19.81,121.94,15.088Zm7.878-1.37c0-1.7-.612-2.263-1.737-2.263s-1.651.5-1.786,2.263Z" transform="translate(-3.539 -4.018)" fill="#fff"/>
        <path id="Path_31437" data-name="Path 31437" d="M136.79,22.318a9.554,9.554,0,0,1-4.171-.807l.4-3.327a8.991,8.991,0,0,0,3.67.82c1.052,0,1.529-.4,1.529-.979,0-1.8-5.762-.746-5.762-5.517,0-2.447,1.664-4.367,5.333-4.367a10.1,10.1,0,0,1,3.817.722l-.306,3.266a11.009,11.009,0,0,0-3.511-.6c-.869,0-1.284.294-1.284.807,0,1.725,5.639.734,5.639,5.333C142.2,20.507,140.644,22.318,136.79,22.318Z" transform="translate(-1.191 -4.018)" fill="#fff"/>
      </g>
      <path id="Path_32204" data-name="Path 32204" d="M-629.733-277.164a10.689,10.689,0,0,1-7.292-3,9.747,9.747,0,0,1-3.016-7.029,10.289,10.289,0,0,1,10.505-10.033,10.288,10.288,0,0,1,10.5,10.033,9.751,9.751,0,0,1-2.9,6.917,10.673,10.673,0,0,1-7.058,3.1v-8.045a1.969,1.969,0,0,0,1.5-1.884,2,2,0,0,0-2.037-1.952,2,2,0,0,0-2.037,1.952,1.972,1.972,0,0,0,1.483,1.878v8.05c.11.005.227.009.346.012Z" transform="translate(643.623 302.723)" fill="#fff"/>
    </g>
  </g>
</svg>
